<svg id="Layer_1" xmlns="http://www.w3.org/2000/svg" viewBox="0 0 162.5 30.4"><style>.st0{fill:#fff}</style><path class="st0" d="M4 1.7C6.2 1.2 8.4.5 10.5 0c.2 1.1.5 2.2.9 3.3.2.7.3 1.4.6 2.3 0 .2.3.9.2 1s-.9.2-1 .2c-.7.2-1.4.3-2.2.6-1.1.2-2.2.6-3.3.9C5.2 6.1 4.6 3.9 4 1.7M2.4 9.6c1.7-.4 3.4-.9 5-1.3.3 1.3.8 2.5 1 3.9.1.2.2.7.2.9.1.4-.1.3-.5.4-.7.2-1.3.3-2 .5s-1.3.3-1.9.4c-.4.1-.5.2-.8-.1-.1-.2-.2-.7-.2-.9-.2-1.3-.6-2.5-.8-3.8M1 16.3c.9-.2 1.9-.5 2.8-.8.2 0 .3-.1.5-.1.4-.1.4-.2.5.2s.2 1 .3 1.4.2.9.3 1.3c0 .1.2.5.1.7l-.8.2c-.7.3-1.6.5-2.6.8-.5-1.2-.7-2.5-1.1-3.7M0 22c.3-.1.8-.2 1.2-.2.2 0 1-.3 1.2-.2.2.1.2.9.2 1.1.1.4.2.8.3 1.3-.8.2-1.5.3-2.4.7 0-.4-.4-2.5-.5-2.7M13 4c2.2-.5 4.4-1.2 6.4-1.7l.8 3.3c.2.8.3 1.4.5 2.3 0 .2.3.9.2 1-.1.2-.9.2-1 .2-.8.2-1.4.3-2.3.7-1.1.2-2.2.5-3.3.9-.2-2.3-.8-4.5-1.3-6.7m-1.7 7.9c1.7-.4 3.4-.9 5-1.3.4 1.7.9 3.4 1.3 5 0 0-4.6 1.3-5 1.4l-1.3-5.1m-1.4 6.6c1.3-.2 2.4-.7 3.7-1 .2.9.5 1.9.8 2.8.2.7.4.9-.2 1.1-.4.1-.9.2-1.4.3-.4.1-.9.2-1.3.3-.2.1-.4.2-.5-.1-.1-.2-.2-.4-.2-.8-.4-.7-.6-1.6-.9-2.6m-1 5.6c.8-.2 1.5-.4 2.4-.7l.2 1.1c.1.2.4 1.1.3 1.3-.1.2-.9.2-1.1.2-.4.1-.8.2-1.3.3-.1-.5-.2-1.3-.5-2.2m13-17.8c1.1-.2 2.2-.5 3.3-.9.8-.2 1.4-.3 2.3-.7.2 0 .9-.3 1-.2.1.1.2.9.2 1 .1.8.3 1.5.6 2.4.2 1.1.5 2.2.9 3.3-1.1.2-2.2.5-3.3.9-.8.2-1.4.3-2.3.7-.2 0-.9.3-1 .2s-.2-.9-.2-1c-.2-.8-.3-1.4-.7-2.3-.2-1.3-.4-2.4-.8-3.4m-1.7 7.9c.9-.2 1.7-.4 2.5-.8.4-.1.9-.2 1.3-.3.2-.1 1.1-.4 1.3-.3.2.1.2 1.1.3 1.3.1.4.2.9.3 1.3.1.4.2.8.3 1.3.1.2.4 1.1.3 1.3-.1.1-1.1.2-1.3.3-.4.1-.9.2-1.3.3-.4.1-.8.2-1.3.3-.2 0-1.2.4-1.3.3s-.2-1.1-.3-1.3c-.1-.4-.2-.9-.3-1.3 0-.8-.4-1.6-.5-2.4m-1.4 6.6c1.2-.3 2.5-.5 3.7-1 .4 1.3.7 2.5 1 3.7-1.3.2-2.4.8-3.7 1 0 0-.9-3.4-1-3.7m-1 5.6c.8-.2 1.5-.4 2.4-.7.1.3.2.8.2 1.2 0 .2.3 1 .2 1.2-.1.2-.9.2-1.1.2-.4.1-.8.2-1.3.3 0-.6-.1-1.4-.4-2.2M42.2 3.1H51c.4 0-.2 2.5-.3 2.8-.4 1-1.3 2.1-2.4 2.5-1.2.4-2.2.5-3.4.8-1.3.2-2.4 0-3.5.7-2.4 1.3-2.1 3.9-2.4 6.2-.2 2-.1 5.2 1.3 6.8 1.7 1.7 4.6 1.3 6.8 1.6 2.3.4 3.9 2.8 3.9 5 0 .8.1.8-.5.8h-8.2c-2.2 0-4.6-.2-6.2-1.7-1.9-1.6-2.6-4.2-2.8-6.6-.2-2.7-.3-5.4-.2-8.1.1-2.4.2-4.9 1.2-7.1 1.5-2.9 4.8-3.7 7.9-3.7m21.1 6.1c-2.4.4-3.7 1.3-4.3 3.7-.2.7-.2.8.4.8h8.2c-.2-1.1-.4-2.4-1.3-3.2-.8-.9-1.9-1.1-3-1.3m-1.7-6.1c2.4 0 5.5-.3 7.8.8 2.4 1.3 3.4 3.2 3.9 5.7.5 2.7.4 5.5.4 8.3 0 .4.1 1 0 1.5-.1.4-.2.2-.7.2H58.9c.3 2.2 1.2 3.9 3.5 4.4 2.4.5 5-.1 6.9 1.9.8.9 1.2 2 1.3 3.2 0 .2.2 1.2 0 1.2h-1.7c-3 0-6.1.3-9.1-.1-2.5-.4-4.8-1.4-5.9-3.9-1-2.4-1.1-4.8-1.3-7.2-.2-2.6-.2-5.6.2-8.2.3-2.3.9-4.7 2.8-6.2 1.9-1.3 4.1-1.6 6-1.6m30.2 0h9.1v.8l-.1.4v.3l-.1.2-.2.9-.2.2-.1.2-.2.2-.1.2-.2.2v.4l-.2.1-.2.2-.2.2-.2.1-.2.2-.1.2-.2.1-.2.1-.5.2-.2.1-.6.4h-.2l-.2.1h-.2l-.3.1h-.8l-.5.1h-1.3l-.3.1H92l-.3.1-.2.1-.2.2-.3.3h-.4l-.2.2-.1.2-.3.2-.1.2-.2.2-.1.2-.2.2-.1.2-.1.3-.1.2-.1.3v.5l-.1.3-.1.3v1.2l-.1.3v15.1h-6V12.6l.1-.7v-.5l.2-.8V9.5l.3-.5.1-.5.2-.5.2-.4.2-.6.2-.4.2-.4.2-.3.4-.4.4-.4.2-.2.4-.2.4-.2.7-.4.4-.2.7-.1.5-.2.8-.1.7-.1.9-.4.7.1m19.7 6.1c-1.2.2-2.3.3-3.2 1.3-.8.9-1 2-1.3 3.2h7.9c.7 0 1 .2.8-.7-.6-2.4-1.8-3.4-4.2-3.8m-1.7-6.1c2.4 0 5.5-.3 7.8.8 2.3 1.3 3.4 3.2 3.8 5.7.5 2.5.4 5.2.4 7.9 0 .5-.1 1.1-.1 1.6 0 .7.2.8-.4.8h-14.4c.2 1.3.5 2.7 1.7 3.6 1.3.9 3 .9 4.5 1 1.3.1 3.3.3 4.2 1.5.5.8 1 1.3 1.3 2.2.2.8.2 1.5.3 2.3h-9.2c-2.2 0-4.5-.4-6-2-1.7-1.7-2.4-4.2-2.5-6.6-.2-2.7-.3-5.5-.2-8.1.2-2.5.2-5.4 1.9-7.5 1.5-2.6 4.3-3.2 6.9-3.2m24.2 0h8.9c.4 0-.2 2.4-.3 2.8-.3 1.1-1.3 2-2.4 2.5-2.1 1.1-4.6.2-6.7 1.3-2.5 1.3-2.3 3.9-2.5 6.2-.3 2.8 0 6 0 9v5.5h-2.1c-.3 0-3.9.1-3.9-.1V16.8c0-3.1-.1-6.4 1.1-9.3 1.2-3.3 4.5-4.4 7.9-4.4m22.5 14.5c.1 2.3-.3 4.5-2.3 5.9-1.4 1.1-3.9.8-5.2-.4-.4-.3-1.2-1.3-1.2-1.9 0-.8.8-1.5 1.3-2 1.5-1.5 4-.8 6-1.3.5-.1.9-.2 1.4-.3m-13.9 8.1c.9 2.4 2.7 3.5 5 4.3 1.2.3 2.4.2 3.6.2 1.3 0 2.7.1 4-.1.5-.1 1.2-.2 1.6-.3.4-.1 1.3-.8 1.6-.8.2 0 1 .5 1.3.8.5.2 1.1.3 1.7.3.2 0 .9.2.9-.2v-7.1c0-2.8.1-5.6 0-8.3-.1-2.4 0-5-1.1-7.3-2.4-5.6-9.7-4.4-14.5-4.4h-2.4c-.2 0 .3 2.3.3 2.5.5 1.7 2 3 3.8 3.4 2.6.5 6.6-.2 7.3 3.3-3.7 0-9-.8-11.8 2.1-2.6 2.9-2.7 8.1-1.3 11.6M82.3 9.2h-7c-.1 0-.8.1-.8 0-.1-.1 0-1.1.1-1.3.1-.8.4-1.7.8-2.4 2.2-3.4 7.6-2.4 10.9-2.4-2.1 1.1-3.8 3.7-4 6.1"/></svg>